<svg width="70" height="36" viewBox="0 0 70 36" fill="none" xmlns="http://www.w3.org/2000/svg">
<path d="M4.04297 13.3242C4.11328 13.1836 4.23047 13.0723 4.39453 12.9902C4.57031 12.8965 4.75195 12.8203 4.93945 12.7617C5.13867 12.7031 5.32617 12.6621 5.50195 12.6387C5.67773 12.6152 5.79492 12.6035 5.85352 12.6035C6.11133 12.6035 6.26367 12.6562 6.31055 12.7617C6.36914 12.8672 6.39844 13.0547 6.39844 13.3242V24.6973C6.99609 23.9238 7.59375 23.0918 8.19141 22.2012C8.80078 21.2988 9.33984 20.3789 9.80859 19.4414L9.98438 19.0723L10.7051 19.6172L10.5293 19.9863C10.2949 20.4551 10.0137 20.9473 9.68555 21.4629C9.36914 21.9785 9.0293 22.5059 8.66602 23.0449C8.30273 23.5723 7.92188 24.0996 7.52344 24.627C7.13672 25.1543 6.76172 25.6582 6.39844 26.1387V30.0586C6.39844 31.1367 6.29883 32.0508 6.09961 32.8008C5.91211 33.5625 5.64844 34.1777 5.30859 34.6465C4.96875 35.127 4.57031 35.4727 4.11328 35.6836C3.65625 35.8945 3.1582 36 2.61914 36C2.2793 36 1.96875 35.9473 1.6875 35.8418C1.39453 35.7363 1.14258 35.5781 0.931641 35.3672C0.720703 35.168 0.556641 34.9219 0.439453 34.6289C0.322266 34.3477 0.263672 34.0254 0.263672 33.6621C0.263672 33.1348 0.363281 32.6074 0.5625 32.0801C0.75 31.5527 1.01953 31.0078 1.37109 30.4453C1.71094 29.8828 2.10938 29.3027 2.56641 28.7051C3.02344 28.1191 3.51562 27.5039 4.04297 26.8594V19.2656H3.86719L3.51562 19.9863L2.79492 19.4414L2.9707 19.0723C3.26367 18.4746 3.46875 17.877 3.58594 17.2793C3.71484 16.6699 3.79688 16.1016 3.83203 15.5742C3.87891 15.0469 3.90234 14.584 3.90234 14.1855C3.91406 13.7871 3.96094 13.5 4.04297 13.3242ZM2.42578 34.9277C2.61328 34.9277 2.80078 34.8867 2.98828 34.8047C3.1875 34.7344 3.36328 34.5645 3.51562 34.2949C3.66797 34.0254 3.79102 33.627 3.88477 33.0996C3.99023 32.5723 4.04297 31.8574 4.04297 30.9551V28.3008C3.64453 28.793 3.28125 29.2676 2.95312 29.7246C2.61328 30.1934 2.32031 30.6445 2.07422 31.0781C1.82812 31.5234 1.63477 31.9512 1.49414 32.3613C1.35352 32.7715 1.2832 33.1699 1.2832 33.5566C1.2832 33.9199 1.38281 34.2363 1.58203 34.5059C1.78125 34.7871 2.0625 34.9277 2.42578 34.9277ZM6.75 9C6.75 9.41016 6.60938 9.75586 6.32812 10.0371C6.05859 10.3066 5.71875 10.4414 5.30859 10.4414C4.91016 10.4414 4.57031 10.3066 4.28906 10.0371C4.00781 9.75586 3.86719 9.41016 3.86719 9C3.86719 8.60156 4.00781 8.26172 4.28906 7.98047C4.57031 7.69922 4.91016 7.55859 5.30859 7.55859C5.71875 7.55859 6.05859 7.69922 6.32812 7.98047C6.60938 8.26172 6.75 8.60156 6.75 9ZM20.6543 22.6406C20.6543 23.3086 20.7129 23.8711 20.8301 24.3281C20.9473 24.7852 21.1523 25.0137 21.4453 25.0137C21.6211 25.0137 21.8086 24.9316 22.0078 24.7676C22.2188 24.5918 22.459 24.3105 22.7285 23.9238C22.998 23.5371 23.3027 23.0391 23.6426 22.4297C23.9941 21.8086 24.3926 21.0527 24.8379 20.1621L25.3652 19.0723L26.0859 19.6172L25.5586 20.707C25.0664 21.6914 24.6035 22.5762 24.1699 23.3613C23.748 24.1348 23.3438 24.791 22.957 25.3301C22.5703 25.8691 22.1895 26.2852 21.8145 26.5781C21.4512 26.8594 21.0879 27 20.7246 27C20.3379 27 20.0098 26.8945 19.7402 26.6836C19.4824 26.4727 19.2656 26.1855 19.0898 25.8223C18.9141 25.4473 18.7793 25.0195 18.6855 24.5391C18.5918 24.0469 18.5273 23.5254 18.4922 22.9746C18.2109 23.5371 17.9004 24.0645 17.5605 24.5566C17.2207 25.0371 16.8633 25.459 16.4883 25.8223C16.125 26.1855 15.7441 26.4727 15.3457 26.6836C14.9473 26.8945 14.5488 27 14.1504 27C13.5645 27 12.9961 26.877 12.4453 26.6309C11.8945 26.3848 11.4023 26.0098 10.9688 25.5059C10.5469 25.002 10.207 24.3691 9.94922 23.6074C9.69141 22.834 9.5625 21.9258 9.5625 20.8828C9.5625 19.6641 9.7207 18.5508 10.0371 17.543C10.3535 16.5234 10.7812 15.6504 11.3203 14.9238C11.8594 14.1855 12.4805 13.6172 13.1836 13.2188C13.8867 12.8086 14.625 12.6035 15.3984 12.6035C15.8672 12.6035 16.3008 12.709 16.6992 12.9199C17.0977 13.1309 17.4434 13.3887 17.7363 13.6934C18.041 13.9863 18.293 14.3027 18.4922 14.6426C18.6914 14.9707 18.8262 15.252 18.8965 15.4863L19.1074 13.7812C19.1309 13.5586 19.2363 13.3711 19.4238 13.2188C19.623 13.0664 19.8398 12.9492 20.0742 12.8672C20.3086 12.7734 20.5371 12.709 20.7598 12.6738C20.9824 12.627 21.1406 12.6035 21.2344 12.6035C21.375 12.6035 21.4688 12.627 21.5156 12.6738C21.5625 12.7207 21.5859 12.8145 21.5859 12.9551C21.5859 13.1309 21.5332 13.4883 21.4277 14.0273C21.334 14.5547 21.2285 15.2344 21.1113 16.0664C21.0059 16.8867 20.9004 17.8535 20.7949 18.9668C20.7012 20.0801 20.6543 21.3047 20.6543 22.6406ZM18.7207 18C18.7207 17.4609 18.6387 16.9336 18.4746 16.418C18.3105 15.8906 18.0879 15.4277 17.8066 15.0293C17.5254 14.6191 17.1973 14.291 16.8223 14.0449C16.459 13.7988 16.0723 13.6758 15.6621 13.6758C15.1582 13.6758 14.6836 13.8223 14.2383 14.1152C13.8047 14.3965 13.4238 14.8008 13.0957 15.3281C12.7793 15.8438 12.5273 16.4707 12.3398 17.209C12.1523 17.9355 12.0586 18.7383 12.0586 19.6172C12.0586 21.375 12.334 22.7168 12.8848 23.6426C13.4355 24.5566 14.168 25.0137 15.082 25.0137C15.4805 25.0137 15.8906 24.8555 16.3125 24.5391C16.7461 24.2109 17.1387 23.748 17.4902 23.1504C17.8535 22.541 18.1465 21.8027 18.3691 20.9355C18.6035 20.0684 18.7207 19.0898 18.7207 18ZM31.3066 16.9629C31.4473 16.7402 31.5645 16.4648 31.6582 16.1367C31.7637 15.8086 31.8164 15.4805 31.8164 15.1523C31.8164 14.7539 31.7168 14.4082 31.5176 14.1152C31.3184 13.8223 30.9609 13.6758 30.4453 13.6758C30.1055 13.6758 29.7598 13.7988 29.4082 14.0449C29.0566 14.291 28.7285 14.6602 28.4238 15.1523C28.1309 15.6445 27.8906 16.2656 27.7031 17.0156C27.5156 17.7656 27.4219 18.6445 27.4219 19.6523C27.4219 20.4492 27.5039 21.1758 27.668 21.832C27.832 22.4883 28.0723 23.0508 28.3887 23.5195C28.7051 23.9883 29.0859 24.3574 29.5312 24.627C29.9883 24.8848 30.498 25.0137 31.0605 25.0137C31.4707 25.0137 31.8867 24.9082 32.3086 24.6973C32.7422 24.4863 33.1758 24.1582 33.6094 23.7129C34.0547 23.2676 34.5117 22.6934 34.9805 21.9902C35.4492 21.2754 35.9297 20.4258 36.4219 19.4414L36.5977 19.0723L37.3184 19.6172L37.1426 19.9863C36.5098 21.2402 35.877 22.3125 35.2441 23.2031C34.623 24.0938 34.0078 24.8203 33.3984 25.3828C32.7891 25.9453 32.1914 26.3555 31.6055 26.6133C31.0312 26.8711 30.4746 27 29.9355 27C29.1738 27 28.4941 26.8418 27.8965 26.5254C27.2988 26.209 26.7949 25.7812 26.3848 25.2422C25.9746 24.6914 25.6582 24.0586 25.4355 23.3438C25.2246 22.6172 25.1191 21.8555 25.1191 21.0586C25.1191 19.793 25.2891 18.6445 25.6289 17.6133C25.9805 16.5703 26.4316 15.6797 26.9824 14.9414C27.5332 14.2031 28.1543 13.6289 28.8457 13.2188C29.5371 12.8086 30.2344 12.6035 30.9375 12.6035C31.4766 12.6035 31.9277 12.6797 32.291 12.832C32.6543 12.9844 32.9473 13.1777 33.1699 13.4121C33.3926 13.6465 33.5508 13.8984 33.6445 14.168C33.7383 14.4375 33.7852 14.6953 33.7852 14.9414C33.7852 15.1875 33.7324 15.4453 33.627 15.7148C33.5215 15.9727 33.3633 16.2188 33.1523 16.4531C32.9531 16.6758 32.7129 16.8809 32.4316 17.0684C32.1504 17.2441 31.834 17.373 31.4824 17.4551L31.3066 16.9629ZM51.3457 19.6172L51.1523 19.9863C50.7539 20.7832 50.2207 21.4219 49.5527 21.9023C48.8965 22.3711 48.1816 22.6758 47.4082 22.8164C47.1973 23.4141 46.9219 23.9707 46.582 24.4863C46.2539 24.9902 45.873 25.4297 45.4395 25.8047C45.0176 26.1797 44.5371 26.4727 43.998 26.6836C43.4707 26.8945 42.8965 27 42.2754 27C41.373 27 40.5586 26.8125 39.832 26.4375C39.1172 26.0508 38.5078 25.5352 38.0039 24.8906C37.5 24.2344 37.1133 23.4727 36.8438 22.6055C36.5742 21.7266 36.4395 20.7891 36.4395 19.793C36.4395 18.9258 36.5391 18.1406 36.7383 17.4375C36.9375 16.7227 37.1895 16.0898 37.4941 15.5391C37.7988 14.9766 38.1387 14.4902 38.5137 14.0801C38.8887 13.6582 39.2578 13.3125 39.6211 13.043C39.9844 12.7734 40.3125 12.5742 40.6055 12.4453C40.9102 12.3047 41.1387 12.2344 41.291 12.2344L41.5195 12.8496C41.0391 13.2012 40.6113 13.6934 40.2363 14.3262C39.9082 14.8652 39.6094 15.5801 39.3398 16.4707C39.082 17.3613 38.9531 18.4688 38.9531 19.793C38.9531 20.6016 39.0293 21.3867 39.1816 22.1484C39.334 22.9102 39.5566 23.584 39.8496 24.1699C40.1426 24.7559 40.5 25.2246 40.9219 25.5762C41.3555 25.9277 41.8418 26.1035 42.3809 26.1035C43.1191 26.1035 43.7285 25.8105 44.209 25.2246C44.7012 24.627 45.0645 23.8125 45.2988 22.7812C44.6895 22.6523 44.1094 22.4121 43.5586 22.0605C43.0078 21.709 42.5215 21.2754 42.0996 20.7598C41.6777 20.2324 41.3379 19.6289 41.0801 18.9492C40.834 18.2695 40.7109 17.5312 40.7109 16.7344C40.7109 16.0781 40.793 15.5039 40.957 15.0117C41.1328 14.5078 41.3613 14.0918 41.6426 13.7637C41.9238 13.4238 42.2461 13.1719 42.6094 13.0078C42.9844 12.832 43.377 12.7441 43.7871 12.7441C44.2676 12.7441 44.7598 12.8848 45.2637 13.166C45.7676 13.4355 46.2246 13.8457 46.6348 14.3965C47.0449 14.9355 47.3789 15.6152 47.6367 16.4355C47.8945 17.2559 48.0234 18.2109 48.0234 19.3008C48.0234 19.7109 48 20.1152 47.9531 20.5137C47.9062 20.9121 47.8359 21.2988 47.7422 21.6738C48.3047 21.5098 48.8145 21.2461 49.2715 20.8828C49.7402 20.5195 50.127 20.0391 50.4316 19.4414L50.625 19.0723L51.3457 19.6172ZM41.8711 16.5938C41.8711 17.2852 41.9648 17.9238 42.1523 18.5098C42.3516 19.084 42.6152 19.5938 42.9434 20.0391C43.2715 20.4727 43.6523 20.8359 44.0859 21.1289C44.5195 21.4219 44.9824 21.627 45.4746 21.7441C45.5332 21.416 45.5684 21.0762 45.5801 20.7246C45.6035 20.3613 45.6152 19.9922 45.6152 19.6172C45.6152 18.7852 45.5508 18.0352 45.4219 17.3672C45.293 16.6875 45.123 16.1133 44.9121 15.6445C44.7012 15.1641 44.4551 14.7949 44.1738 14.5371C43.8926 14.2793 43.6055 14.1504 43.3125 14.1504C42.9141 14.1504 42.5742 14.3672 42.293 14.8008C42.0117 15.2227 41.8711 15.8203 41.8711 16.5938ZM54.4219 24.7676C54.6328 24.7676 54.873 24.6328 55.1426 24.3633C55.4238 24.082 55.7227 23.7012 56.0391 23.2207C56.3555 22.7402 56.6895 22.1777 57.041 21.5332C57.3926 20.8887 57.7559 20.1914 58.1309 19.4414L58.3066 19.0723L59.0273 19.6172L58.8516 19.9863C58.2305 21.2285 57.6738 22.2949 57.1816 23.1855C56.7012 24.0645 56.25 24.791 55.8281 25.3652C55.4062 25.9277 55.002 26.3438 54.6152 26.6133C54.2402 26.8711 53.8535 27 53.4551 27C52.9277 27 52.4707 26.8301 52.084 26.4902C51.709 26.1387 51.3926 25.5586 51.1348 24.75C50.8887 23.9297 50.707 22.8516 50.5898 21.5156C50.4609 20.1797 50.3965 18.5273 50.3965 16.5586C50.3965 13.7695 50.5137 11.3789 50.748 9.38672C50.9824 7.38281 51.2988 5.74219 51.6973 4.46484C52.1074 3.17578 52.5762 2.23242 53.1035 1.63477C53.6426 1.02539 54.2051 0.720703 54.791 0.720703C55.1426 0.720703 55.4355 0.867187 55.6699 1.16016C55.916 1.44141 56.0391 1.95703 56.0391 2.70703C56.0391 3.29297 55.9922 3.96094 55.8984 4.71094C55.8047 5.46094 55.6816 6.26367 55.5293 7.11914C55.377 7.97461 55.1953 8.86523 54.9844 9.79102C54.7734 10.7051 54.5508 11.6191 54.3164 12.5332C54.082 13.4355 53.8418 14.3262 53.5957 15.2051C53.3496 16.0723 53.1094 16.8867 52.875 17.6484C52.9453 19.0898 53.0215 20.2734 53.1035 21.1992C53.1973 22.1133 53.3027 22.834 53.4199 23.3613C53.5488 23.8887 53.6953 24.2578 53.8594 24.4688C54.0234 24.668 54.2109 24.7676 54.4219 24.7676ZM54.8965 3.12891C54.8965 2.88281 54.8672 2.68945 54.8086 2.54883C54.75 2.4082 54.6562 2.33789 54.5273 2.33789C54.3984 2.33789 54.2695 2.51953 54.1406 2.88281C54.0117 3.24609 53.8828 3.73828 53.7539 4.35938C53.6367 4.98047 53.5254 5.70117 53.4199 6.52148C53.3262 7.3418 53.2383 8.21484 53.1562 9.14062C53.0742 10.0547 53.0098 10.9922 52.9629 11.9531C52.916 12.9141 52.8867 13.8398 52.875 14.7305C53.1562 13.6992 53.4141 12.6445 53.6484 11.5664C53.8945 10.4766 54.1113 9.42188 54.2988 8.40234C54.4863 7.38281 54.6328 6.42188 54.7383 5.51953C54.8438 4.60547 54.8965 3.80859 54.8965 3.12891ZM63.4922 25.0137C63.9023 25.0137 64.3184 24.9082 64.7402 24.6973C65.1738 24.4863 65.6074 24.1582 66.041 23.7129C66.4863 23.2676 66.9434 22.6934 67.4121 21.9902C67.8809 21.2754 68.3613 20.4258 68.8535 19.4414L69.0293 19.0723L69.75 19.6172L69.5742 19.9863C68.9414 21.2402 68.3086 22.3125 67.6758 23.2031C67.0547 24.0938 66.4395 24.8203 65.8301 25.3828C65.2324 25.9453 64.6406 26.3555 64.0547 26.6133C63.4688 26.8711 62.9062 27 62.3672 27C61.6055 27 60.9258 26.8418 60.3281 26.5254C59.7305 26.209 59.2266 25.7812 58.8164 25.2422C58.4062 24.6914 58.0957 24.0586 57.8848 23.3438C57.6621 22.6172 57.5508 21.8555 57.5508 21.0586C57.5508 19.793 57.7266 18.6445 58.0781 17.6133C58.418 16.5703 58.875 15.6797 59.4492 14.9414C60.0352 14.2031 60.6973 13.6289 61.4355 13.2188C62.1738 12.8086 62.9414 12.6035 63.7383 12.6035C64.5469 12.6035 65.1621 12.8086 65.584 13.2188C66.0176 13.6289 66.2344 14.1445 66.2344 14.7656C66.2344 15.3633 66.0645 15.9258 65.7246 16.4531C65.3848 16.9688 64.9219 17.4785 64.3359 17.9824C63.7617 18.4746 63.0938 18.9668 62.332 19.459C61.5703 19.9395 60.7676 20.4375 59.9238 20.9531C60.0059 21.5625 60.1465 22.1191 60.3457 22.623C60.5449 23.1152 60.7969 23.543 61.1016 23.9062C61.4062 24.2578 61.7578 24.5332 62.1562 24.7324C62.5547 24.9199 63 25.0137 63.4922 25.0137ZM64.0371 15.293C64.0371 14.8242 63.9082 14.4551 63.6504 14.1855C63.4043 13.916 63.0996 13.7812 62.7363 13.7812C62.4316 13.7812 62.1094 13.8926 61.7695 14.1152C61.4297 14.3262 61.1191 14.6719 60.8379 15.1523C60.5566 15.6211 60.3223 16.2246 60.1348 16.9629C59.9473 17.7012 59.8535 18.5977 59.8535 19.6523V20.0566C60.252 19.8457 60.6914 19.5703 61.1719 19.2305C61.6641 18.8789 62.1211 18.4922 62.543 18.0703C62.9648 17.6484 63.3164 17.2031 63.5977 16.7344C63.8906 16.2539 64.0371 15.7734 64.0371 15.293Z" fill="white"/>
</svg>
